<?xml version="1.0" encoding="utf-8"?>
<!-- Generator: Adobe Illustrator 15.0.0, SVG Export Plug-In . SVG Version: 6.00 Build 0)  -->
<!DOCTYPE svg PUBLIC "-//W3C//DTD SVG 1.1//EN" "http://www.w3.org/Graphics/SVG/1.1/DTD/svg11.dtd">
<svg version="1.1" id="Layer_1" xmlns="http://www.w3.org/2000/svg" xmlns:xlink="http://www.w3.org/1999/xlink" x="0px" y="0px"
	 width="336.818px" height="68.273px" viewBox="0 0 336.818 68.273" enable-background="new 0 0 336.818 68.273"
	 xml:space="preserve">
<g>
	<g>
		<path fill="#FFFFFF" d="M8.202,30.083c0-1.649,1.131-3.736,2.513-4.638L36.688,8.513c1.382-0.901,2.513-0.288,2.513,1.361v6.598
			c0,1.649-1.155,3.699-2.566,4.555L19.681,31.3c-1.411,0.855-1.413,2.257-0.002,3.113l16.959,10.313
			c1.409,0.856,2.562,2.908,2.562,4.559v6.551c0,1.65-1.131,2.264-2.513,1.362L10.715,40.267c-1.382-0.901-2.513-2.988-2.513-4.639
			V30.083z"/>
	</g>
	<g>
		<path fill="#FFFFFF" d="M330.202,35.629c0,1.65-1.131,3.737-2.513,4.639l-25.975,16.932c-1.382,0.901-2.513,0.288-2.513-1.362
			V49.24c0-1.65,1.155-3.7,2.566-4.555l16.955-10.274c1.41-0.854,1.412-2.256,0.002-3.113l-16.959-10.312
			c-1.41-0.857-2.563-2.909-2.563-4.56V9.875c0-1.649,1.131-2.263,2.513-1.361l25.975,16.932c1.382,0.901,2.513,2.988,2.513,4.638
			L330.202,35.629L330.202,35.629z"/>
	</g>
	<g>
		<path fill="#FFFFFF" d="M47.646,58.494c-1.65,0-3-1.35-3-3V9.674c0-1.649,1.35-3,3-3h6.492c1.649,0,3,1.351,3,3v13.759
			c0,1.649,1.35,3,3,3H77.53c1.65,0,3-1.351,3-3V9.674c0-1.649,1.35-3,3-3h6.492c1.649,0,3,1.351,3,3v45.82c0,1.65-1.351,3-3,3
			H83.53c-1.65,0-3-1.35-3-3V38.361c0-1.65-1.35-3-3-3H60.139c-1.65,0-3,1.35-3,3v17.133c0,1.65-1.351,3-3,3H47.646z"/>
	</g>
	<g>
		<path fill="#FFFFFF" d="M138.034,9.325c0.772-1.458,2.755-2.651,4.405-2.651h8.247c1.649,0,2.288,1.146,1.417,2.549
			l-16.959,27.293c-0.871,1.401-1.583,3.897-1.583,5.548v13.431c0,1.65-1.351,3-3,3h-6.574c-1.65,0-3-1.35-3-3V42.063
			c0-1.65-0.73-4.137-1.622-5.523L101.789,9.197c-0.892-1.388-0.271-2.523,1.378-2.523h8.819c1.65,0,3.654,1.182,4.453,2.625
			l9.587,17.32c0.799,1.444,2.085,1.432,2.856-0.026L138.034,9.325z"/>
	</g>
	<g>
		<path fill="#FFFFFF" d="M196.129,7.799c4.223,1.195,7.641,3.388,10.255,6.574c2.098,2.579,3.526,5.367,4.29,8.367
			s1.145,5.859,1.145,8.578c0,6.891-1.607,12.727-4.821,17.508c-4.357,6.446-11.085,9.668-20.183,9.668H163.87c-1.649,0-3-1.35-3-3
			V9.674c0-1.649,1.351-3,3-3h22.944C190.546,6.721,193.651,7.096,196.129,7.799z M176.077,15.674c-1.65,0-3,1.351-3,3v27.82
			c0,1.65,1.35,3,3,3h5.612c1.649,0,4.31-0.327,5.911-0.727c0,0,7.175-1.792,9.519-6.832c1.281-2.766,1.922-6.06,1.922-9.879
			c0-5.273-0.961-9.322-2.883-12.146s-5.745-4.236-11.469-4.236H176.077z"/>
	</g>
	<g>
		<path fill="#FFFFFF" d="M232.72,55.494c0,1.65-1.351,3-3,3h-6.492c-1.65,0-3-1.35-3-3V9.674c0-1.649,1.35-3,3-3h6.492
			c1.649,0,3,1.351,3,3V55.494z"/>
	</g>
	<g>
		<path fill="#FFFFFF" d="M289.356,12.193c1.841,2.203,2.762,4.84,2.762,7.91c0,3.164-0.929,5.708-2.787,7.629
			c-1.039,1.078-2.567,2.062-4.589,2.953c3.07,0.961,5.388,2.483,6.951,4.569c1.562,2.086,2.344,4.618,2.344,7.595
			c0,3.07-0.893,5.823-2.679,8.262c-1.137,1.617-2.558,2.977-4.262,4.078c-1.922,1.266-4.188,2.133-6.8,2.602
			c-2.61,0.469-5.444,0.703-8.503,0.703h-24.112c-1.65,0-3-1.35-3-3V9.674c0-1.649,1.35-3,3-3h26.079
			C281.099,6.768,286.297,8.607,289.356,12.193z M259.684,15.674c-1.65,0-3,1.351-3,3V24.1c0,1.649,1.35,3,3,3h8.625
			c1.649,0,4.345-0.122,5.987-0.271c0,0,1.746-0.158,3.375-1.014s2.444-2.373,2.444-4.553c0-2.414-1.077-4.009-3.232-4.781
			c-1.858-0.539-4.229-0.81-7.11-0.81L259.684,15.674L259.684,15.674z M259.684,35.677c-1.65,0-3,1.351-3,3v7.816c0,1.65,1.35,3,3,3
			h8.608c1.65,0,4.348-0.088,5.994-0.196c0,0,1.647-0.107,3.101-0.718c2.636-1.125,3.954-3.281,3.954-6.469
			c0-2.695-1.277-4.547-3.833-5.555c-1.426-0.562-3.431-0.855-6.013-0.88L259.684,35.677L259.684,35.677z"/>
	</g>
</g>
</svg>
