<?xml version="1.0" encoding="UTF-8" standalone="no"?>
<svg width="249px" height="52px" viewBox="0 0 249 52" version="1.1" xmlns="http://www.w3.org/2000/svg" xmlns:xlink="http://www.w3.org/1999/xlink" xmlns:sketch="http://www.bohemiancoding.com/sketch/ns">
    <!-- Generator: Sketch 3.0.1 (7597) - http://www.bohemiancoding.com/sketch -->
    <title>logo_2014_05_01</title>
    <description>Created with Sketch.</description>
    <defs></defs>
    <g id="Page-1" stroke="none" stroke-width="1" fill="none" fill-rule="evenodd" sketch:type="MSPage">
        <g id="Logo_hydib_1" sketch:type="MSLayerGroup" fill="#FFFFFF">
            <g id="Group" sketch:type="MSShapeGroup">
                <path d="M2.646,51.494 C0.996,51.494 -0.354,50.144 -0.354,48.494 L-0.354,2.674 C-0.354,1.024 0.996,-0.326 2.646,-0.326 L9.138,-0.326 C10.788,-0.326 12.138,1.024 12.138,2.674 L12.138,16.432 C12.138,18.082 13.488,19.432 15.138,19.432 L32.53,19.432 C34.18,19.432 35.53,18.082 35.53,16.432 L35.53,2.674 C35.53,1.024 36.88,-0.326 38.53,-0.326 L45.022,-0.326 C46.672,-0.326 48.022,1.024 48.022,2.674 L48.022,48.494 C48.022,50.144 46.672,51.494 45.022,51.494 L38.53,51.494 C36.88,51.494 35.53,50.144 35.53,48.494 L35.53,31.361 C35.53,29.711 34.18,28.361 32.53,28.361 L15.139,28.361 C13.489,28.361 12.139,29.711 12.139,31.361 L12.139,48.494 C12.139,50.144 10.789,51.494 9.139,51.494 L2.646,51.494 L2.646,51.494 Z" id="Shape"></path>
                <path d="M93.034,2.325 C93.806,0.867 95.789,-0.326 97.439,-0.326 L105.686,-0.326 C107.336,-0.326 107.974,0.82 107.103,2.222 L90.144,29.515 C89.273,30.917 88.561,33.413 88.561,35.063 L88.561,48.494 C88.561,50.144 87.211,51.494 85.561,51.494 L78.987,51.494 C77.337,51.494 75.987,50.144 75.987,48.494 L75.987,35.063 C75.987,33.413 75.257,30.927 74.365,29.54 L56.789,2.197 C55.897,0.809 56.517,-0.326 58.167,-0.326 L66.986,-0.326 C68.636,-0.326 70.64,0.855 71.439,2.299 L81.026,19.619 C81.825,21.063 83.111,21.051 83.883,19.593 L93.034,2.325 L93.034,2.325 Z" id="Shape"></path>
                <path d="M151.129,0.799 C155.351,1.994 158.769,4.186 161.384,7.373 C163.481,9.952 164.91,12.74 165.674,15.74 C166.437,18.74 166.818,21.599 166.818,24.318 C166.818,31.209 165.211,37.045 161.997,41.826 C157.639,48.272 150.912,51.494 141.814,51.494 L118.87,51.494 C117.22,51.494 115.87,50.144 115.87,48.494 L115.87,2.674 C115.87,1.024 117.22,-0.326 118.87,-0.326 L141.814,-0.326 C145.546,-0.279 148.651,0.096 151.129,0.799 L151.129,0.799 Z M131.077,8.674 C129.427,8.674 128.077,10.024 128.077,11.674 L128.077,39.494 C128.077,41.144 129.427,42.494 131.077,42.494 L136.689,42.494 C138.339,42.494 140.999,42.167 142.6,41.767 C142.6,41.767 149.775,39.975 152.119,34.935 C153.4,32.17 154.041,28.876 154.041,25.056 C154.041,19.783 153.08,15.734 151.158,12.91 C149.236,10.086 145.413,8.674 139.689,8.674 L131.077,8.674 L131.077,8.674 Z" id="Shape"></path>
                <path d="M187.72,48.494 C187.72,50.144 186.37,51.494 184.72,51.494 L178.228,51.494 C176.578,51.494 175.228,50.144 175.228,48.494 L175.228,2.674 C175.228,1.024 176.578,-0.326 178.228,-0.326 L184.72,-0.326 C186.37,-0.326 187.72,1.024 187.72,2.674 L187.72,48.494 L187.72,48.494 Z" id="Shape"></path>
                <path d="M244.356,5.193 C246.197,7.396 247.118,10.033 247.118,13.103 C247.118,16.267 246.189,18.811 244.331,20.732 C243.292,21.81 241.763,22.794 239.742,23.685 C242.812,24.646 245.13,26.169 246.693,28.255 C248.255,30.341 249.037,32.873 249.037,35.849 C249.037,38.92 248.144,41.673 246.358,44.111 C245.221,45.728 243.801,47.088 242.096,48.189 C240.175,49.455 237.908,50.322 235.297,50.791 C232.686,51.26 229.852,51.494 226.794,51.494 L202.681,51.494 C201.031,51.494 199.681,50.144 199.681,48.494 L199.681,2.674 C199.681,1.024 201.031,-0.326 202.681,-0.326 L228.761,-0.326 C236.099,-0.232 241.297,1.607 244.356,5.193 L244.356,5.193 Z M214.684,8.674 C213.034,8.674 211.684,10.024 211.684,11.674 L211.684,17.1 C211.684,18.75 213.034,20.1 214.684,20.1 L223.309,20.1 C224.959,20.1 227.654,19.978 229.297,19.83 C229.297,19.83 231.043,19.672 232.672,18.816 C234.301,17.961 235.116,16.443 235.116,14.263 C235.116,11.849 234.039,10.255 231.884,9.482 C230.025,8.943 227.655,8.673 224.773,8.673 L214.684,8.673 L214.684,8.674 Z M214.684,28.678 C213.034,28.678 211.684,30.028 211.684,31.678 L211.684,39.494 C211.684,41.144 213.034,42.494 214.684,42.494 L223.293,42.494 C224.943,42.494 227.64,42.406 229.287,42.298 C229.287,42.298 230.934,42.19 232.387,41.58 C235.023,40.455 236.342,38.299 236.342,35.111 C236.342,32.416 235.064,30.564 232.509,29.556 C231.083,28.994 229.078,28.701 226.496,28.677 L214.684,28.677 L214.684,28.678 Z" id="Shape"></path>
            </g>
        </g>
    </g>
</svg>