<?xml version="1.0" encoding="utf-8"?>
<!-- Generator: Adobe Illustrator 15.0.0, SVG Export Plug-In . SVG Version: 6.00 Build 0)  -->
<!DOCTYPE svg PUBLIC "-//W3C//DTD SVG 1.1//EN" "http://www.w3.org/Graphics/SVG/1.1/DTD/svg11.dtd">
<svg version="1.1" id="Layer_1" xmlns="http://www.w3.org/2000/svg" xmlns:xlink="http://www.w3.org/1999/xlink" x="0px" y="0px"
	 width="336.818px" height="68.273px" viewBox="0 0 336.818 68.273" enable-background="new 0 0 336.818 68.273"
	 xml:space="preserve">
<g>
	<g>
		<path fill="#404040" d="M8.202,30.083c0-1.65,1.131-3.737,2.513-4.638L36.688,8.513c1.382-0.901,2.513-0.288,2.513,1.362v6.597
			c0,1.65-1.155,3.7-2.566,4.555L19.681,31.3c-1.411,0.855-1.413,2.256-0.002,3.113l16.959,10.313
			c1.41,0.857,2.563,2.909,2.563,4.559v6.551c0,1.65-1.131,2.263-2.513,1.362L10.715,40.267c-1.382-0.901-2.513-2.988-2.513-4.638
			V30.083z"/>
	</g>
	<g>
		<path fill="#404040" d="M330.202,35.629c0,1.65-1.131,3.737-2.513,4.638l-25.974,16.932c-1.382,0.901-2.513,0.288-2.513-1.362
			V49.24c0-1.65,1.155-3.7,2.566-4.555l16.955-10.274c1.411-0.855,1.413-2.256,0.002-3.113l-16.959-10.313
			c-1.41-0.857-2.563-2.909-2.563-4.559V9.875c0-1.65,1.131-2.263,2.513-1.362l25.974,16.932c1.382,0.901,2.513,2.988,2.513,4.638
			V35.629z"/>
	</g>
	<g>
		<path fill="#404040" d="M47.646,58.494c-1.65,0-3-1.35-3-3V9.674c0-1.65,1.35-3,3-3h6.492c1.65,0,3,1.35,3,3v13.758
			c0,1.65,1.35,3,3,3H77.53c1.65,0,3-1.35,3-3V9.674c0-1.65,1.35-3,3-3h6.492c1.65,0,3,1.35,3,3v45.82c0,1.65-1.35,3-3,3H83.53
			c-1.65,0-3-1.35-3-3V38.361c0-1.65-1.35-3-3-3H60.139c-1.65,0-3,1.35-3,3v17.133c0,1.65-1.35,3-3,3H47.646z"/>
	</g>
	<g>
		<path fill="#404040" d="M138.034,9.325c0.772-1.458,2.755-2.651,4.405-2.651h8.247c1.65,0,2.288,1.146,1.417,2.548l-16.959,27.293
			c-0.871,1.402-1.583,3.898-1.583,5.548v13.431c0,1.65-1.35,3-3,3h-6.574c-1.65,0-3-1.35-3-3V42.063c0-1.65-0.73-4.136-1.622-5.523
			L101.789,9.197c-0.892-1.388-0.272-2.523,1.378-2.523h8.819c1.65,0,3.654,1.181,4.453,2.625l9.587,17.32
			c0.799,1.444,2.085,1.432,2.857-0.026L138.034,9.325z"/>
	</g>
	<g>
		<path fill="#404040" d="M196.129,7.799c4.222,1.195,7.64,3.387,10.255,6.574c2.097,2.579,3.526,5.367,4.29,8.367
			c0.763,3,1.144,5.859,1.144,8.578c0,6.891-1.607,12.727-4.821,17.508c-4.358,6.446-11.085,9.668-20.183,9.668h-22.944
			c-1.65,0-3-1.35-3-3V9.674c0-1.65,1.35-3,3-3h22.944C190.546,6.721,193.651,7.096,196.129,7.799z M176.077,15.674
			c-1.65,0-3,1.35-3,3v27.82c0,1.65,1.35,3,3,3h5.612c1.65,0,4.31-0.327,5.911-0.727c0,0,7.175-1.792,9.519-6.832
			c1.281-2.765,1.922-6.059,1.922-9.879c0-5.273-0.961-9.322-2.883-12.146c-1.922-2.824-5.745-4.236-11.469-4.236H176.077z"/>
	</g>
	<g>
		<path fill="#404040" d="M232.72,55.494c0,1.65-1.35,3-3,3h-6.492c-1.65,0-3-1.35-3-3V9.674c0-1.65,1.35-3,3-3h6.492
			c1.65,0,3,1.35,3,3V55.494z"/>
	</g>
	<g>
		<path fill="#404040" d="M289.356,12.193c1.841,2.203,2.762,4.84,2.762,7.91c0,3.164-0.929,5.708-2.787,7.629
			c-1.039,1.078-2.568,2.062-4.589,2.953c3.07,0.961,5.388,2.484,6.951,4.57c1.562,2.086,2.344,4.618,2.344,7.594
			c0,3.071-0.893,5.824-2.679,8.262c-1.137,1.617-2.557,2.977-4.262,4.078c-1.921,1.266-4.188,2.133-6.799,2.602
			c-2.611,0.469-5.445,0.703-8.503,0.703h-24.113c-1.65,0-3-1.35-3-3V9.674c0-1.65,1.35-3,3-3h26.08
			C281.099,6.768,286.297,8.607,289.356,12.193z M259.684,15.674c-1.65,0-3,1.35-3,3V24.1c0,1.65,1.35,3,3,3h8.625
			c1.65,0,4.345-0.122,5.988-0.27c0,0,1.746-0.158,3.375-1.014c1.629-0.855,2.444-2.373,2.444-4.553
			c0-2.414-1.077-4.008-3.232-4.781c-1.859-0.539-4.229-0.809-7.111-0.809H259.684z M259.684,35.678c-1.65,0-3,1.35-3,3v7.816
			c0,1.65,1.35,3,3,3h8.609c1.65,0,4.347-0.088,5.994-0.196c0,0,1.647-0.108,3.1-0.718c2.636-1.125,3.955-3.281,3.955-6.469
			c0-2.695-1.278-4.547-3.833-5.555c-1.426-0.562-3.431-0.855-6.013-0.879H259.684z"/>
	</g>
</g>
</svg>
